<svg width="95" height="68" viewBox="0 0 95 68" fill="none"
     xmlns="http://www.w3.org/2000/svg">
    <path d="M5.99982 48.3867C36.8619 33.4831 58.5861 62.1253 88.9998 42.3581"
          stroke="#8FD65E" stroke-width="12" stroke-linecap="round"/>
    <path d="M24.6194 28.6378C24.5626 28.0649 24.3188 27.6198 23.8879 27.3026C23.457 26.9853 22.8723 26.8267 22.1336 26.8267C21.6317 26.8267 21.208 26.8977 20.8623 27.0398C20.5167 27.1771 20.2515 27.3688 20.0669 27.6151C19.8869 27.8613 19.797 28.1406 19.797 28.4531C19.7875 28.7135 19.842 28.9408 19.9603 29.1349C20.0834 29.3291 20.2515 29.4972 20.4646 29.6392C20.6777 29.7765 20.9239 29.8973 21.2032 30.0014C21.4826 30.1009 21.7809 30.1861 22.0981 30.2571L23.4049 30.5696C24.0394 30.7116 24.6218 30.901 25.1521 31.1378C25.6824 31.3745 26.1417 31.6657 26.5299 32.0114C26.9182 32.357 27.2189 32.7642 27.4319 33.233C27.6497 33.7017 27.761 34.2391 27.7657 34.8452C27.761 35.7353 27.5337 36.5071 27.0839 37.1605C26.6388 37.8092 25.9949 38.3134 25.1521 38.6733C24.314 39.0284 23.3031 39.206 22.1194 39.206C20.9452 39.206 19.9225 39.026 19.0512 38.6662C18.1848 38.3063 17.5077 37.7737 17.02 37.0682C16.537 36.358 16.2837 35.4796 16.2601 34.4332H19.2359C19.269 34.9209 19.4087 35.3281 19.6549 35.6548C19.9059 35.9768 20.2397 36.2206 20.6564 36.3864C21.0778 36.5473 21.5536 36.6278 22.0839 36.6278C22.6047 36.6278 23.0569 36.5521 23.4404 36.4006C23.8287 36.2491 24.1294 36.0384 24.3424 35.7685C24.5555 35.4986 24.662 35.1884 24.662 34.8381C24.662 34.5114 24.565 34.2367 24.3708 34.0142C24.1815 33.7917 23.9021 33.6023 23.5328 33.446C23.1682 33.2898 22.7208 33.1477 22.1904 33.0199L20.6066 32.6222C19.3803 32.3239 18.412 31.8575 17.7018 31.223C16.9916 30.5885 16.6388 29.7339 16.6436 28.6591C16.6388 27.7784 16.8732 27.009 17.3467 26.3509C17.8249 25.6927 18.4807 25.179 19.314 24.8097C20.1474 24.4403 21.0943 24.2557 22.1549 24.2557C23.2345 24.2557 24.1767 24.4403 24.9816 24.8097C25.7913 25.179 26.421 25.6927 26.8708 26.3509C27.3207 27.009 27.5527 27.7713 27.5669 28.6378H24.6194ZM31.803 32.6932V39H28.7775V24.4545H31.7178V30.0156H31.8456C32.0918 29.3717 32.4896 28.8674 33.0388 28.5028C33.5881 28.1335 34.277 27.9489 35.1056 27.9489C35.8632 27.9489 36.5237 28.1146 37.0871 28.446C37.6553 28.7727 38.0956 29.2438 38.4081 29.8594C38.7254 30.4702 38.8816 31.2017 38.8769 32.054V39H35.8513V32.5938C35.856 31.9214 35.6856 31.3982 35.34 31.0241C34.999 30.6501 34.5208 30.4631 33.9053 30.4631C33.4934 30.4631 33.1288 30.5507 32.8115 30.7259C32.499 30.901 32.2528 31.1567 32.0729 31.4929C31.8977 31.8243 31.8078 32.2244 31.803 32.6932ZM45.2295 39.2131C44.1074 39.2131 43.1414 38.9858 42.3318 38.5312C41.5269 38.072 40.9066 37.4233 40.471 36.5852C40.0354 35.7424 39.8176 34.7457 39.8176 33.5952C39.8176 32.473 40.0354 31.4882 40.471 30.6406C40.9066 29.7931 41.5198 29.1326 42.3105 28.6591C43.1059 28.1856 44.0387 27.9489 45.1088 27.9489C45.8285 27.9489 46.4985 28.0649 47.1187 28.2969C47.7437 28.5241 48.2882 28.8674 48.7522 29.3267C49.221 29.786 49.5856 30.3636 49.846 31.0597C50.1064 31.7509 50.2366 32.5606 50.2366 33.4886V34.3196H41.025V32.4446H47.3886C47.3886 32.009 47.2939 31.6231 47.1045 31.2869C46.9151 30.9508 46.6523 30.688 46.3162 30.4986C45.9847 30.3045 45.5988 30.2074 45.1585 30.2074C44.6992 30.2074 44.292 30.3139 43.9369 30.527C43.5865 30.7353 43.3119 31.017 43.113 31.3722C42.9142 31.7225 42.8124 32.1132 42.8076 32.544V34.3267C42.8076 34.8665 42.9071 35.3329 43.1059 35.7259C43.3095 36.1188 43.596 36.4219 43.9653 36.6349C44.3346 36.848 44.7726 36.9545 45.2792 36.9545C45.6154 36.9545 45.9232 36.9072 46.2025 36.8125C46.4819 36.7178 46.721 36.5758 46.9199 36.3864C47.1187 36.197 47.2702 35.965 47.3744 35.6903L50.1727 35.875C50.0306 36.5473 49.7395 37.1345 49.2991 37.6364C48.8635 38.1335 48.3001 38.5218 47.6088 38.8011C46.9222 39.0758 46.1291 39.2131 45.2295 39.2131ZM54.2366 24.4545V39H51.211V24.4545H54.2366ZM61.5267 28.0909V30.3636H54.7938V28.0909H61.5267ZM56.335 39V27.3026C56.335 26.5118 56.4889 25.8561 56.7966 25.3352C57.1091 24.8144 57.5353 24.4238 58.075 24.1634C58.6148 23.9029 59.228 23.7727 59.9145 23.7727C60.3785 23.7727 60.8023 23.8082 61.1858 23.8793C61.5741 23.9503 61.8629 24.0142 62.0523 24.071L61.5125 26.3438C61.3942 26.3059 61.2474 26.2704 61.0722 26.2372C60.9017 26.2041 60.7266 26.1875 60.5466 26.1875C60.1016 26.1875 59.7914 26.2917 59.6162 26.5C59.441 26.7036 59.3534 26.9901 59.3534 27.3594V39H56.335ZM62.3751 39V28.0909H65.4007V39H62.3751ZM63.895 26.6847C63.4452 26.6847 63.0593 26.5355 62.7373 26.2372C62.4201 25.9342 62.2615 25.572 62.2615 25.1506C62.2615 24.7339 62.4201 24.3764 62.7373 24.0781C63.0593 23.7751 63.4452 23.6236 63.895 23.6236C64.3448 23.6236 64.7283 23.7751 65.0456 24.0781C65.3675 24.3764 65.5285 24.7339 65.5285 25.1506C65.5285 25.572 65.3675 25.9342 65.0456 26.2372C64.7283 26.5355 64.3448 26.6847 63.895 26.6847ZM71.7959 39.2131C70.6738 39.2131 69.7078 38.9858 68.8982 38.5312C68.0933 38.072 67.473 37.4233 67.0374 36.5852C66.6018 35.7424 66.384 34.7457 66.384 33.5952C66.384 32.473 66.6018 31.4882 67.0374 30.6406C67.473 29.7931 68.0862 29.1326 68.8769 28.6591C69.6723 28.1856 70.6051 27.9489 71.6752 27.9489C72.3949 27.9489 73.0649 28.0649 73.6851 28.2969C74.3101 28.5241 74.8546 28.8674 75.3186 29.3267C75.7874 29.786 76.152 30.3636 76.4124 31.0597C76.6728 31.7509 76.803 32.5606 76.803 33.4886V34.3196H67.5914V32.4446H73.955C73.955 32.009 73.8603 31.6231 73.6709 31.2869C73.4815 30.9508 73.2187 30.688 72.8826 30.4986C72.5511 30.3045 72.1652 30.2074 71.7249 30.2074C71.2656 30.2074 70.8584 30.3139 70.5033 30.527C70.1529 30.7353 69.8783 31.017 69.6794 31.3722C69.4806 31.7225 69.3788 32.1132 69.374 32.544V34.3267C69.374 34.8665 69.4735 35.3329 69.6723 35.7259C69.8759 36.1188 70.1624 36.4219 70.5317 36.6349C70.901 36.848 71.339 36.9545 71.8456 36.9545C72.1818 36.9545 72.4896 36.9072 72.7689 36.8125C73.0483 36.7178 73.2874 36.5758 73.4863 36.3864C73.6851 36.197 73.8366 35.965 73.9408 35.6903L76.7391 35.875C76.5971 36.5473 76.3059 37.1345 75.8655 37.6364C75.4299 38.1335 74.8665 38.5218 74.1752 38.8011C73.4886 39.0758 72.6955 39.2131 71.7959 39.2131Z"
          fill="#1B1734"/>
    <path d="M5.99978 48.3867C16.5551 43.2894 26.0415 43.2859 35.1723 44.6973"
          stroke="#8FD65E" stroke-width="12" stroke-linecap="round"/>
</svg>
